<svg xmlns="http://www.w3.org/2000/svg" width="30" height="30" viewBox="0 0 30 30">
  <g id="Group_6722" data-name="Group 6722" transform="translate(-458 -757)">
    <g id="_291716_github_logo_social_network_social_icon" data-name="291716_github_logo_social network_social_icon" transform="translate(459.25 758.267)">
      <path id="Path_5925" data-name="Path 5925" d="M15.906,19.023c2.679-.316,5.529-1.291,5.529-5.919a4.646,4.646,0,0,0-1.218-3.216,4.343,4.343,0,0,0-.147-3.166S19.1,6.406,16.807,7.94A11.8,11.8,0,0,0,13.762,7.5a11.509,11.509,0,0,0-3.045.438C8.4,6.406,7.429,6.723,7.429,6.723a4.344,4.344,0,0,0-.146,3.166A4.642,4.642,0,0,0,6.065,13.1c0,4.628,2.85,5.6,5.529,5.919a2.7,2.7,0,0,0-.779,1.632,2.6,2.6,0,0,1-3.532-1,2.483,2.483,0,0,0-1.827-1.218s-1.194-.024-.1.73A3.1,3.1,0,0,1,6.7,20.923s.73,2.314,4.092,1.583v2.07c0,.317-.243.682-.852.585a12.021,12.021,0,1,1,7.624,0c-.609.122-.853-.243-.853-.585V21.24a2.815,2.815,0,0,0-.8-2.217ZM27.5,13.762A13.75,13.75,0,1,0,13.762,27.5,13.758,13.758,0,0,0,27.5,13.762Z" fill="#ffb900" fill-rule="evenodd"/>
    </g>
    <g id="linkedin_circle" transform="translate(458 757)">
      <rect id="Rectangle_2071" data-name="Rectangle 2071" width="30" height="30" fill="none"/>
    </g>
  </g>
</svg>
